<svg version="1.0" xmlns="http://www.w3.org/2000/svg" xmlns:xlink="http://www.w3.org/1999/xlink"
     width="100%" height="100%" viewBox="0 0 80.000000 80.000000" preserveAspectRatio="xMidYMid meet"
     color-interpolation-filters="sRGB" style="margin: auto;">
    <g fill="#13a49d" class="basesvg" transform="translate(5,18)">
        <path d="M39.13 0L32.95 0 27.63-15.21 14.11-15.21 8.78 0 2.6 0 17.62-43.16 24.12-43.16 39.13 0ZM25.74-20.67L20.87-34.77 15.93-20.67 25.74-20.67ZM64.81-29.9Q64.48-32.44 63.44-34.06L63.44-34.06Q62.27-35.81 60.55-36.63 58.83-37.44 56.16-37.44L56.16-37.44Q51.74-37.44 49.99-35.55L49.99-35.55Q48.3-33.87 48.3-30.68L48.3-30.68Q48.3-28.86 48.82-27.72 49.34-26.59 50.38-25.87L50.38-25.87Q51.94-24.77 55.51-24.44L55.51-24.44Q59.15-24.12 61.65-23.43 64.16-22.75 66.04-21.58L66.04-21.58Q70.78-18.59 70.78-12.22L70.78-12.22Q70.78-9.75 69.81-7.54 68.84-5.33 67.08-3.58L67.08-3.58Q65-1.56 62.17-0.58 59.35 0.39 56.29 0.39L56.29 0.39Q49.4 0.39 45.31-3.51L45.31-3.51Q41.8-7.02 41.08-12.87L41.08-12.87 41.21-12.94 46.93-12.94Q47.45-9.49 49.27-7.8L49.27-7.8Q51.81-5.46 56.1-5.46L56.1-5.46Q60.19-5.46 62.6-7.35 65-9.23 65-12.22L65-12.22Q65-13.59 64.64-14.59 64.28-15.6 63.31-16.38L63.31-16.38Q61.1-18.07 55.06-18.53L55.06-18.53Q48.88-19.05 45.7-22.1 42.51-25.16 42.51-30.68L42.51-30.68Q42.51-36.27 45.96-39.72L45.96-39.72Q49.6-43.36 56.1-43.36L56.1-43.36Q62.86-43.36 66.63-39.26L66.63-39.26Q69.94-35.69 70.66-29.9L70.66-29.9 64.81-29.9Z"
              transform="translate(-2.5999999046325684, 43.36000061035156)"></path>
    </g>
</svg>